<svg width="18" height="18" viewBox="0 0 18 18" fill="none" xmlns="http://www.w3.org/2000/svg">
<rect x="0.5" y="0.5" width="17" height="17" stroke="black"/>
<g clip-path="url(#clip0_200_16190)">
<path fill-rule="evenodd" clip-rule="evenodd" d="M13.9826 5.64963L7.5172 12.0707L4.07234 8.67527C4.0257 8.62532 3.96853 8.58534 3.90456 8.55797C3.8406 8.5306 3.7713 8.51645 3.7012 8.51645C3.6311 8.51645 3.5618 8.5306 3.49783 8.55797C3.43387 8.58534 3.37669 8.62532 3.33006 8.67527C3.22849 8.77461 3.17163 8.90792 3.17163 9.04672C3.17163 9.18553 3.22849 9.31884 3.33006 9.41818L7.1452 13.1859C7.25148 13.2923 7.41091 13.3455 7.51634 13.3455C7.67491 13.3455 7.78206 13.2931 7.88663 13.1859L14.6701 6.39418C14.7719 6.2948 14.8289 6.16132 14.8289 6.02231C14.8289 5.88331 14.7719 5.74983 14.6701 5.65045C14.5123 5.43772 14.1943 5.43772 13.9826 5.65045V5.64963Z" fill="black"/>
</g>
<defs>
<clipPath id="clip0_200_16190">
<rect width="12" height="9" fill="white" transform="translate(3 5)"/>
</clipPath>
</defs>
</svg>
