<?xml version="1.0" encoding="utf-8"?>
<svg viewBox="233.7412 13.5239 19.13 19.9994" width="19.13" height="19.9994" xmlns="http://www.w3.org/2000/svg">
  <path id="Vector" d="M 16.125 19.997 C 15.157 19.997 14.133 19.759 13.073 19.511 C 11.983 19.257 10.865 18.994 9.758 18.994 C 8.65 18.994 7.562 19.264 6.51 19.524 C 4.348 20.062 2.307 20.57 0.561 18.43 L 0.435 18.247 L 0.468 18.038 C 0.955 14.789 2.619 12.174 5.149 10.68 L 5.468 10.492 L 5.725 10.764 C 6.269 11.356 6.93 11.828 7.665 12.152 C 8.401 12.476 9.195 12.644 9.999 12.645 C 11.615 12.645 13.161 11.965 14.272 10.764 L 14.525 10.492 L 14.848 10.68 C 17.381 12.178 19.044 14.791 19.532 18.037 L 19.565 18.261 L 19.428 18.43 C 19.043 18.936 18.542 19.342 17.967 19.615 C 17.392 19.888 16.761 20.019 16.125 19.997 Z M 9.768 18.559 C 10.924 18.559 10.501 17.469 11.617 17.693 C 13.701 18.112 3.73 13.004 19.099 18.151 L 19.114 18.134 L 16.69 18.619 C 16.221 15.497 17.056 12.495 14.639 11.065 L 14.608 11.048 L 16.64 12.366 C 16.056 12.997 17.655 18.445 16.868 18.791 C 16.08 19.136 10.63 18.576 9.77 18.578 C 8.91 18.576 8.296 12.9 7.509 12.555 C 6.721 12.21 6.013 11.706 5.428 11.075 L 5.402 11.048 C 5.402 11.048 12.565 15.245 9.526 18.204 C 7.096 19.634 1.352 14.996 0.885 18.113 L 0.798 17.661 L 2.13 15.566 C 3.702 17.495 7.125 6.276 10.717 18.187 C 11.034 19.239 8.595 18.559 9.768 18.559 Z M 9.997 11.808 C 6.809 11.808 4.225 9.164 4.225 5.903 C 4.225 2.643 6.809 0 9.997 0 C 13.186 0 15.77 2.643 15.77 5.904 C 15.766 9.163 13.184 11.804 9.997 11.809 L 9.997 11.808 Z M 12.542 3.29 C 10.38 3.29 5.681 5.971 5.058 3.814 C 4.435 1.657 10.831 2.432 12.36 3.996 C 13.099 4.758 8.549 7.704 10.769 7.058 C 12.989 6.412 7.573 8.021 8.438 7.689 C 10.464 6.91 7.559 9.642 7.558 7.429 C 7.555 4.409 12.95 0.437 9.997 0.432 C 11.583 -0.418 12.542 3.29 12.542 3.29 Z" fill="black" style="paint-order: fill;" transform="matrix(1, 0, 0, 1, 233.30616760253906, 13.52390193939209)"/>
</svg>